<svg xmlns="http://www.w3.org/2000/svg" viewBox="0 0 305.01 305.98"><defs><style>.cls-1{isolation:isolate;}.cls-2{fill:#f1ead1;}.cls-3{mix-blend-mode:multiply;}.cls-4{fill:#26a584;}.cls-5{fill:#2bc19d;}.cls-6{fill:#1a1a1a;}.cls-7{fill:#fdfdfd;}.cls-8{fill:#2a2a2a;}.cls-9{fill:#292929;}</style></defs><title>Artboard 11</title><g class="cls-1"><g id="Layer_1" data-name="Layer 1"><ellipse class="cls-2" cx="140.55" cy="200.61" rx="46.56" ry="89.96"/><ellipse class="cls-2" cx="107.13" cy="200.42" rx="36.06" ry="79.16"/><ellipse class="cls-2" cx="245.65" cy="200.42" rx="36.06" ry="79.16"/><ellipse class="cls-2" cx="212.23" cy="200.61" rx="46.56" ry="89.96"/><ellipse class="cls-2" cx="176.27" cy="206" rx="91.64" ry="50.63" transform="matrix(0.03, -1, 1, 0.03, -35.73, 375.01)"/><g class="cls-3"><path class="cls-2" d="M120.27,152c-6.48,5.67-9.7,14.33-11.81,22.45-2.86,11-3.9,22.48-4.18,33.81a206.44,206.44,0,0,0,1.6,32.31c.8,6.07,1.44,13.7,4.92,19,1.06,1.61,3.66.1,2.59-1.51-3.37-5.1-3.91-12.69-4.65-18.56a207,207,0,0,1-1.49-30.07,153.14,153.14,0,0,1,3.61-32.16c2-8.3,4.91-17.33,11.53-23.12,1.46-1.27-.67-3.38-2.12-2.12Z"/></g><g class="cls-3"><path class="cls-2" d="M138.06,236.11c-1.67,12.49,2.7,25.43,9.69,35.72,1.08,1.58,3.68.09,2.59-1.52-6.73-9.9-10.89-22.17-9.28-34.2.25-1.9-2.75-1.89-3,0Z"/></g><g class="cls-3"><path class="cls-2" d="M232,141.9c19.13,2.88,23.62,26.17,25,42.12,1.76,20.19-.1,41-4.17,60.83-1.18,5.77-2.14,13.1-5.49,18.12-1.07,1.61,1.53,3.11,2.59,1.51,3.06-4.58,4.1-11,5.25-16.28a237.37,237.37,0,0,0,4.46-29.64c1.84-20.43,2.7-44.31-6.55-63.24C249,147,242.18,140.42,232.76,139c-1.89-.28-2.7,2.61-.8,2.9Z"/></g><path class="cls-4" d="M147.77,136.78s6.94,1,18-5.06c5.79-3.17,8.22-10.3,8.22-10.3s12.65,14.39,30.5,3.23c0,0-3.69,10.1-2.77,16.17,1.52,10,3.69,13.14,3.69,13.14s-4.37-4.52-16.6-3c-8.29,1-16.57,5.44-16.57,5.44s-.91-4-8.32-10.5C159.32,141.83,147.77,136.78,147.77,136.78Z"/><g class="cls-3"><path class="cls-2" d="M209,155.37c17.78,2.62,19.14,29.78,18.58,43-.08,1.93,2.92,1.93,3,0,.62-14.62-1.49-43.09-20.78-45.94-1.89-.28-2.71,2.61-.8,2.9Z"/></g><path class="cls-5" d="M183,94.39c-4.25,15.7-3.83,40.19-3,45.21a83.72,83.72,0,0,1,8.52,1.26s8.52-41.45,12.35-46.47C201,94.21,183,94.39,183,94.39Z"/><ellipse class="cls-5" cx="191.94" cy="94.39" rx="8.94" ry="2.51"/><path d="M278.8,150.46c-36.48-2.74-73.67,3.63-110.25,8.68-50.94,7-70.26,14.93-101.13,23.84-.48-3.83-.76-22,3.76-35.41.4-.87.83-1.72,1.18-2.6a113,113,0,0,1,31.47-44.33c1.4-1.22,2.69-2.59,4-3.88,1.56-1,3.16-2,4.68-3,19-13.12,39.74-20.31,62.8-19,8.45.47,16.83,2.54,25.24,3.88l-.13,0,.64.44,11.54,4.3c2.33,1.19,4.7,2.3,7,3.58,3.92,2.21,7.78,4.53,11.67,6.8l.57.42.86.67c4.31,3.74,8.78,6.21,13.13,9.9C253.49,111.14,275.4,130.9,278.8,150.46Z"/><path d="M201.76,89.3l-.49-.35.09,0a22.33,22.33,0,0,0-.81-2.25c-12.73-27-1.24-59.45,25.31-71.25,2.65-1.18,5.38-2.17,8.08-3.24l8.59-1.33c.25.13.51.38.75.37,23.13-1.07,43.34,12.74,51.39,35.16.73,2,1.42,4.09,2.12,6.13l1.22,7.9a9.9,9.9,0,0,0-.29,1.77c.36,16.65-5.26,30.68-17.28,41.66-10.71,9.79-23.51,13.67-37.78,12.82-2.18-2.21-4.27-4.5-6.55-6.59-3.25-3-6.63-5.79-10-8.67-.22-.17-1-.74-1.1-.84C224.51,99.53,204.73,90.4,201.76,89.3Z"/><path d="M108.4,105.92c-1,1-2,2-3.11,3A87.08,87.08,0,0,0,81.08,143c-.27.68-.6,1.34-.91,2-.53.16-1.09.26-1.6.47a51.4,51.4,0,0,1-17.65,4.15c-22,1.19-43-13.15-50.52-34.52-.91-2.58-1.76-5.18-2.64-7.77L7,102.43a8.92,8.92,0,0,0,.25-1.52c0-2.72-.27-5.47,0-8.17,2-20.6,11.86-35.74,30.18-44C55.37,40.71,73,42.91,88.69,55.32,104.78,68,111.1,85.28,108.4,105.92Z"/><path class="cls-6" d="M211.24,79.36a8.62,8.62,0,0,0-.72-1.94c-5.69-8.55-7.88-18-5.94-28,2.42-12.51,9.31-21.68,20.43-27,12.48-6,24.93-5.24,37.14,1.56a14.34,14.34,0,0,1,1.76,1.37h0a103.46,103.46,0,0,0-10.35-1,37.83,37.83,0,0,0-21.24,6.21A36.55,36.55,0,0,0,217.05,51c-3.44,11.43-1.59,22.3,4.81,32.4a27.09,27.09,0,0,1,1.37,2.75c-2.5-1.48-5-3-7.51-4.43C214.26,80.86,212.73,80.13,211.24,79.36Z"/><path class="cls-7" d="M200.45,78.58l.64.45Z"/><path class="cls-8" d="M231.84,94.12l.86.67Z"/><path class="cls-8" d="M294.7,0l.29.11L294.7,0Z"/><path class="cls-6" d="M73.89,59.31c-2.44-.31-4.88-.68-7.32-.94C54,57.08,43.36,61.73,35,71.89c-6.47,7.84-9.78,17.57-9.38,28.92a46.35,46.35,0,0,0,13.46,31.86,14.1,14.1,0,0,1,1,1.36l-.31.55a78.33,78.33,0,0,1-7.44-4.51A45.82,45.82,0,0,1,14,97.42,43.92,43.92,0,0,1,18.86,71.6c4.88-9.22,12-15.42,20.89-18.37C51,49.5,62.2,51,72.81,58.18a8.17,8.17,0,0,1,1.1,1.1Z"/><path class="cls-9" d="M78.56,38.48l.29.24-.31-.2Z"/></g></g></svg>