<svg xmlns="http://www.w3.org/2000/svg" viewBox="0 0 401.37 818.48"><defs><style>.cls-1{fill:#ff0;}</style></defs><title>Artboard 12</title><g id="Layer_2" data-name="Layer 2"><path class="cls-1" d="M399.45,22.15a247.36,247.36,0,0,0-32.86-10.78A347.86,347.86,0,0,0,295,1H266.56q-42.37,1.71-79,13.73-42.67,14.06-73.51,39.84T65.27,119.1q-18,38.72-17.95,87,0,41.52,14.59,75.75t50.5,78a381.09,381.09,0,0,0-79.12,87Q.17,496.74.18,565.19q0,46,18,91.46A241.56,241.56,0,0,0,71.44,738Q106.8,773.94,159,796.36q42.27,18.18,96,21.64h51.61a421.38,421.38,0,0,0,79.11-12.66q6.93-1.79,13.78-3.86ZM251,167.35q10.65-11.78,29.74-11.78,17.94,0,28.62,10.1T320,194.85q0,18-10.1,29.74t-32.54,27.49q-20.2-19.07-28.63-29.73t-8.41-25.25Q240.34,179.16,251,167.35Zm52.18,485.37q-26.93,0-46-9T226.31,621.3a83.72,83.72,0,0,1-16.83-28.62q-5.05-15.15-5-27.49,0-31.41,38.15-62.85L369.4,638.13Q336.84,652.73,303.18,652.72Z"/></g></svg>