<?xml version="1.0" encoding="utf-8"?>
<!-- Generator: Adobe Illustrator 22.1.0, SVG Export Plug-In . SVG Version: 6.00 Build 0)  -->
<svg version="1.1" id="Layer_1" xmlns="http://www.w3.org/2000/svg" xmlns:xlink="http://www.w3.org/1999/xlink" x="0px" y="0px"
	 viewBox="0 0 246 490" style="enable-background:new 0 0 246 490;" xml:space="preserve">
<title>ampersand</title>
<path d="M246,15.9c-8.5-4.1-17.4-7.2-26.5-9.5C202.7,2.1,185.4,0,168.1,0c-20.2,0-38.8,2.8-55.8,8.4c-17,5.6-31.7,13.6-44,23.9
	C55.7,42.8,45.7,56,39,70.9c-7.2,15.5-10.8,32.8-10.8,52.1c0.1,16.6,3,31.7,8.8,45.4s15.9,29.2,30.2,46.7
	c-18.4,14.8-34.4,32.4-47.4,52.1C6.6,287.1,0,310.8,0,338.1c0.1,18.8,3.7,37.4,10.8,54.8c7.2,18.2,18.1,34.8,31.9,48.7
	c14.1,14.3,31.6,26,52.4,35s45.2,13.5,72.9,13.5c21.2,0,42.3-2.8,62.8-8.1c5.1-1.3,10.1-2.8,15.1-4.5V15.9z M150.2,99.8
	c4.3-4.7,10.2-7,17.8-7c7.2,0,12.9,2,17.1,6c4.3,4,6.4,9.9,6.4,17.5c0,7.2-2,13.1-6,17.8c-4,4.7-10.5,10.2-19.5,16.5
	c-8.1-7.6-13.8-13.5-17.2-17.8c-3.4-4.3-5.1-9.7-5-15.1h0C143.8,110.4,146,104.5,150.2,99.8z M181.5,390.5L181.5,390.5
	c-10.8,0-20-1.8-27.6-5.4c-7-3.1-13.3-7.7-18.5-13.4c-4.5-5-7.9-10.8-10.1-17.1c-1.9-5.3-2.9-10.9-3-16.5c0-12.5,7.6-25.1,22.9-37.6
	l76,81.3C208.7,387.5,195.2,390.5,181.5,390.5z"/>
</svg>
