<svg xmlns="http://www.w3.org/2000/svg" viewBox="0 0 369.87 374"><defs><style>.cls-1{fill:#f1ead1;}.cls-2{fill:#2bc19d;}.cls-3{fill:#ffbf3e;}.cls-4{fill:#d34c59;}</style></defs><title>Artboard 8</title><g id="Layer_1" data-name="Layer 1"><circle class="cls-1" cx="125.62" cy="300.08" r="4.98"/><path class="cls-2" d="M259.71,23.33h-27.2a3.17,3.17,0,0,1-3.21-3,3.09,3.09,0,0,1,3.08-3.18h27.2a3.18,3.18,0,0,1,3.22,3A3.09,3.09,0,0,1,259.71,23.33Z"/><path class="cls-2" d="M249.13,6.58v27.2a3.17,3.17,0,0,1-3,3.21A3.09,3.09,0,0,1,243,33.91V6.71a3.18,3.18,0,0,1,3-3.22A3.09,3.09,0,0,1,249.13,6.58Z"/><path class="cls-2" d="M103.19,161.9H76a3.17,3.17,0,0,1-3.21-3,3.09,3.09,0,0,1,3.08-3.18h27.2a3.17,3.17,0,0,1,3.21,3A3.07,3.07,0,0,1,103.19,161.9Z"/><path class="cls-2" d="M92.61,145.15v27.2a3.18,3.18,0,0,1-3,3.22,3.09,3.09,0,0,1-3.18-3.09v-27.2a3.17,3.17,0,0,1,3-3.21A3.09,3.09,0,0,1,92.61,145.15Z"/><path class="cls-2" d="M352.43,348.33h-27.2a3.17,3.17,0,0,1-3.21-3,3.08,3.08,0,0,1,3.08-3.18h27.2a3.17,3.17,0,0,1,3.21,3A3.09,3.09,0,0,1,352.43,348.33Z"/><path class="cls-2" d="M341.85,331.58v27.2a3.17,3.17,0,0,1-3,3.21,3.07,3.07,0,0,1-3.18-3.08v-27.2a3.17,3.17,0,0,1,3-3.21A3.09,3.09,0,0,1,341.85,331.58Z"/><circle class="cls-1" cx="187.92" cy="216.84" r="14.46"/><circle class="cls-1" cx="287.62" cy="145.06" r="7.48"/><circle class="cls-1" cx="89.73" cy="94.71" r="4.98"/><circle class="cls-1" cx="317.03" cy="4.98" r="4.98"/><path class="cls-3" d="M354.26,221a2.36,2.36,0,0,0-.09-4.24l-13.88-6.49-2.52-15.12a2.36,2.36,0,0,0-2.34-2,2.33,2.33,0,0,0-1.72.75l-10.47,11.2-15.15-2.28-.35,0a2.36,2.36,0,0,0-2.07,3.51l7.41,13.41-6.84,13.71a2.37,2.37,0,0,0,2.12,3.43,2.3,2.3,0,0,0,.45,0l15-2.91,10.93,10.75a2.38,2.38,0,0,0,1.66.68,2.66,2.66,0,0,0,.78-.13,2.37,2.37,0,0,0,1.57-1.95l1.88-15.21Z"/><path class="cls-3" d="M95.24,237.6a2.37,2.37,0,0,0-3.54-2.35l-13.25,7.69L64.6,236.38a2.37,2.37,0,0,0-2.48.29,2.07,2.07,0,0,0-.48.5,2.36,2.36,0,0,0-.37,1.85l3.22,15L54,265.15a1.94,1.94,0,0,0-.23.27,2.4,2.4,0,0,0-.27,2.18,2.36,2.36,0,0,0,2,1.52l15.24,1.57,7.35,13.45a2.36,2.36,0,0,0,4,.21,1.87,1.87,0,0,0,.22-.39l6.2-14,15.06-2.84a2.39,2.39,0,0,0,1.51-1,2.4,2.4,0,0,0-.37-3.12L93.28,252.8Z"/><path class="cls-3" d="M215.39,59.64a3.56,3.56,0,0,0-5.32-3.53L190.14,67.68,169.3,57.81a3.58,3.58,0,0,0-3.73.43,3.4,3.4,0,0,0-.71.76,3.58,3.58,0,0,0-.56,2.78l4.85,22.53-15.82,16.77a3.21,3.21,0,0,0-.34.41,3.56,3.56,0,0,0,2.56,5.57l22.93,2.36,11.06,20.22a3.55,3.55,0,0,0,3.27,1.85,3.52,3.52,0,0,0,2.77-1.52,3.78,3.78,0,0,0,.34-.59l9.33-21.08L227.9,104a3.53,3.53,0,0,0,2.26-1.46,3.54,3.54,0,0,0-.55-4.68L212.45,82.5Z"/><path class="cls-4" d="M366.84,107.78c-7.71-10-22.89-4.1-22.89,6.07,0-10.17-15.19-16.08-22.9-6.07-8,10.36-.12,28.5,22.9,38.92C367,136.28,374.82,118.14,366.84,107.78Z"/><path class="cls-4" d="M48.82,52c-7.72-10-22.9-4.1-22.9,6.07C25.92,47.85,10.74,41.94,3,52c-8,10.36-.11,28.5,22.9,38.92C48.93,80.45,56.79,62.31,48.82,52Z"/><path class="cls-4" d="M262.19,296.92c-15.28-19.84-45.35-8.13-45.35,12,0-20.15-30.08-31.86-45.36-12-15.79,20.51-.23,56.44,45.36,77.08C262.42,353.36,278,317.43,262.19,296.92Z"/></g></svg>