<svg xmlns="http://www.w3.org/2000/svg" viewBox="0 0 286.87 210.39"><defs><style>.cls-1{fill:#ffbf3e;}.cls-2{fill:#2bc19d;}.cls-3{fill:#d34c59;}.cls-4{fill:#f1ead1;}</style></defs><title>Artboard 7</title><g id="Layer_1" data-name="Layer 1"><path class="cls-1" d="M200.47,17.28H9A8.88,8.88,0,0,1,0,8.91,8.65,8.65,0,0,1,8.64,0H200.11a8.87,8.87,0,0,1,9,8.37A8.63,8.63,0,0,1,200.47,17.28Z"/><path class="cls-2" d="M278.23,65.56H224.45a8.88,8.88,0,0,1-9-8.37,8.64,8.64,0,0,1,8.64-8.91h53.78a8.88,8.88,0,0,1,9,8.37A8.64,8.64,0,0,1,278.23,65.56Z"/><path class="cls-3" d="M195.28,65.56H94.84a8.88,8.88,0,0,1-9-8.37,8.63,8.63,0,0,1,8.64-8.91H194.92a8.88,8.88,0,0,1,9,8.37A8.64,8.64,0,0,1,195.28,65.56Z"/><path class="cls-2" d="M65.67,65.56H9a8.89,8.89,0,0,1-9-8.37,8.65,8.65,0,0,1,8.64-8.91H65.31a8.88,8.88,0,0,1,9,8.37A8.64,8.64,0,0,1,65.67,65.56Z"/><path class="cls-4" d="M148.62,113.84H9a8.89,8.89,0,0,1-9-8.38,8.65,8.65,0,0,1,8.64-8.91H148.26a8.88,8.88,0,0,1,9,8.38A8.65,8.65,0,0,1,148.62,113.84Z"/><path class="cls-4" d="M235,162.12H208.9a8.88,8.88,0,0,1-9-8.38,8.64,8.64,0,0,1,8.63-8.91h26.14a8.89,8.89,0,0,1,9,8.38A8.65,8.65,0,0,1,235,162.12Z"/><path class="cls-1" d="M179.73,162.12H103.48a8.88,8.88,0,0,1-9-8.38,8.64,8.64,0,0,1,8.64-8.91h76.25a8.89,8.89,0,0,1,9,8.38A8.65,8.65,0,0,1,179.73,162.12Z"/><path class="cls-2" d="M74.31,162.12H9a8.89,8.89,0,0,1-9-8.38,8.65,8.65,0,0,1,8.64-8.91H74a8.88,8.88,0,0,1,9,8.38A8.65,8.65,0,0,1,74.31,162.12Z"/><path class="cls-3" d="M122.7,210.39H9A8.88,8.88,0,0,1,0,202a8.65,8.65,0,0,1,8.64-8.91h113.7a8.88,8.88,0,0,1,9,8.37A8.65,8.65,0,0,1,122.7,210.39Z"/></g></svg>