<svg xmlns="http://www.w3.org/2000/svg" viewBox="0 0 527.07 119.1"><defs><style>.cls-1{fill:none;stroke:#f1ead1;stroke-linecap:round;stroke-miterlimit:10;stroke-width:4px;}.cls-2{fill:#2bc19d;}.cls-3{fill:#fff;}.cls-4{fill:#222;}.cls-5{fill:#26a584;}.cls-6{fill:#ddd;}</style></defs><title>Artboard 10</title><g id="Layer_1" data-name="Layer 1"><path class="cls-1" d="M264.86,102.48c16.44,21.92,37,17.64,51.37-31,6.41-21.67,20-56.68,32.88-57.71,0,0-28.08,83.4-14.38,100.52,3.64,4.56,32.62-99.23,47.69-100.09,0,0-26.06,94.41-10.71,100.26,12.06,4.6,54.8-64.72,36-65.41-14.86-.54-4.88,25.71,8.57,31.68,3.08,1.37-19.24,23.48-8.05,33.73,6.16,5.66,23-12.76,27.74-18.66,7.88-9.76,12.59-17.9,12.5-28.08,0-2.5,19.95,21.32,9.76,39.9-6.69,12.2-27.31,5.73-24.91,2.14,3.79-5.7,12-.66,31.67,4.11,17,4.11,25-4.63,22.87-8.82"/><path class="cls-1" d="M233.69,111.85c1,.93-2,2.42-2.15.65s2.05-2.42,3.27-2"/><path class="cls-1" d="M500.74,110.61c1.89,1.71-2.56,4.45-2.91,1.2s3.26-3.25,5.48-2.57"/><path class="cls-1" d="M262.53,47.77s3.79,22.55-1.08,30.65c-.06.11-7.69-12.69-16.2-18.1-.36-.22,13,2.71,22.69.68,8.94-1.86,15.79-3,20.12.4"/><path class="cls-1" d="M21.61,76.71C15,70.07-6.53,86,5.69,105.65c14.55,23.46,59.59,5.48,63.18-6.17,4.91-15.87-14-15.07-14.38-1.71-.48,18.83,18.82,19.72,25.17,19,10.62-1.2,23.12-9.25,32.2-37.51s26.2-64.38,36-64.55c0,0-28,76.35-14,100.34,5,8.57,33.23-100.51,47.27-99.32,0,0-26.13,92.16-10.79,99.15,11.64,5.31,48.63-51.2,40.58-63.7s-21.57,11.47,4.63,30.48c0,0-19.68,25.64-8.22,33.57,8.9,6.16,19.27-21.2,26.71-19.18"/><path class="cls-2" d="M524.25,0a2.81,2.81,0,0,0-1.87.71L480,36.6l11.29,11.29L526.43,4.67a2.76,2.76,0,0,0,.64-1.79V2.82A2.82,2.82,0,0,0,524.25,0Z"/><path class="cls-3" d="M474.52,43.44a16.47,16.47,0,0,1,8.64,7.94h0a12.21,12.21,0,0,1,1.27,4.85l6.81-8.36L480,36.58l-7.51,6.35A7.45,7.45,0,0,1,474.52,43.44Z"/><path class="cls-4" d="M474.52,43.44h0a16.47,16.47,0,0,1,8.64,7.94h0a12.34,12.34,0,0,1-.45,11.87h0A11.6,11.6,0,0,1,476,68.43h0a42.46,42.46,0,0,1-18.69,1.06l-2.2-.37.7-.71A27.88,27.88,0,0,0,461,61.2h0a17.84,17.84,0,0,0,1.87-8h0a11.06,11.06,0,0,1,4.43-8.85h0A7.46,7.46,0,0,1,474.52,43.44Z"/><path d="M483.17,51.38h0c-.06-.12-.12-.22-.18-.33-4.17,12.69-17.82,16.91-26.44,18.3l.72.12a42.63,42.63,0,0,0,18.69-1,11.61,11.61,0,0,0,6.75-5.18A12.32,12.32,0,0,0,483.17,51.38Z"/><path class="cls-5" d="M488.45,45.08l2.79,2.78L526.43,4.67a2.76,2.76,0,0,0,.64-1.79V2.82a2.07,2.07,0,0,0,0-.35Z"/><path class="cls-6" d="M483,51.09l.16.29h0a12.38,12.38,0,0,1,1.27,4.85l6.81-8.36-2.79-2.79Z"/></g></svg>