<svg xmlns="http://www.w3.org/2000/svg" viewBox="0 0 444 167.46"><defs><style>.cls-1{fill:none;stroke:#f1ead1;stroke-linecap:round;stroke-miterlimit:10;stroke-width:4px;}.cls-2{fill:#f1ead1;}.cls-3{fill:#d34c59;}.cls-4{fill:#ffbf3e;}.cls-5{fill:#26a584;}.cls-6{fill:#2bc19d;}</style></defs><title>Artboard 9</title><g id="Layer_1" data-name="Layer 1"><line class="cls-1" x1="202.98" y1="96.74" x2="442" y2="96.74"/><line class="cls-1" x1="202.98" y1="116.13" x2="442" y2="116.13"/><line class="cls-1" x1="202.98" y1="135.52" x2="346.11" y2="135.52"/><rect class="cls-2" x="398.67" y="12.42" width="35.2" height="7.16" rx="2.64" ry="2.64"/><rect class="cls-2" x="358.48" y="12.42" width="35.2" height="7.16" rx="2.64" ry="2.64"/><rect class="cls-2" x="318.29" y="12.42" width="35.2" height="7.16" rx="2.64" ry="2.64"/><rect class="cls-2" x="278.09" y="12.42" width="35.2" height="7.16" rx="2.64" ry="2.64"/><path class="cls-3" d="M61.88,0H6.12A6.13,6.13,0,0,0,0,6.12V21.93a6.13,6.13,0,0,0,6.12,6.12H61.88A6.13,6.13,0,0,0,68,21.93V6.12A6.13,6.13,0,0,0,61.88,0ZM27.82,14.28,4.08,21.67V6.89Zm-19-10.2H60.57L34.68,12.14ZM34.68,16.42,58.93,24H10.43Zm6.86-2.14,22.38-7V21.25Z"/><rect class="cls-2" x="0.93" y="64.8" width="160.67" height="102.65" rx="8" ry="8"/><circle class="cls-4" cx="29.06" cy="90.89" r="12.86"/><path class="cls-5" d="M161.6,142.43l-2.82-3.12-33.77-31L95.45,140.71l15.43,15.44,11.31,11.31h30.08a9.34,9.34,0,0,0,9.33-9.34Z"/><polygon class="cls-6" points="110.89 156.15 80.02 125.28 32.12 167.46 122.19 167.46 110.89 156.15"/></g></svg>